<?xml version="1.0" encoding="UTF-8" standalone="no"?><!DOCTYPE svg PUBLIC "-//W3C//DTD SVG 1.1//EN" "http://www.w3.org/Graphics/SVG/1.1/DTD/svg11.dtd"><svg width="100%" height="100%" viewBox="0 0 2281 2369" version="1.1" xmlns="http://www.w3.org/2000/svg" xmlns:xlink="http://www.w3.org/1999/xlink" xml:space="preserve" xmlns:serif="http://www.serif.com/" style="fill-rule:evenodd;clip-rule:evenodd;stroke-linecap:round;stroke-linejoin:round;stroke-miterlimit:1.5;"><g><ellipse cx="1169.96" cy="1217.79" rx="996.107" ry="975.22" style="fill:#cdebff;"/><g><g id="Bottom"><g id="Wheel"><circle cx="1688.62" cy="2054.68" r="187.561" style="fill:#fff;stroke:#000;stroke-width:87.5px;"/><circle cx="1688.62" cy="2054.68" r="59.224"/></g><g id="Wheel1" serif:id="Wheel"><circle cx="726.828" cy="2057.24" r="187.561" style="fill:#fff;stroke:#000;stroke-width:87.5px;"/><circle cx="726.828" cy="2057.24" r="59.224"/></g><path d="M1978.56,2323.42c0,24.146 -19.603,43.75 -43.75,43.75l-1454.17,-0c-24.147,-0 -43.75,-19.604 -43.75,-43.75c-0,-24.147 19.603,-43.75 43.75,-43.75l1454.17,-0c24.147,-0 43.75,19.603 43.75,43.75Z"/><path d="M1978.56,2323.42c0,24.146 -19.603,43.75 -43.75,43.75l-1454.17,-0c-24.147,-0 -43.75,-19.604 -43.75,-43.75c-0,-24.147 19.603,-43.75 43.75,-43.75l1454.17,-0c24.147,-0 43.75,19.603 43.75,43.75Z"/><g><path d="M2126.33,2324.49c0,24.146 -19.604,43.75 -43.75,43.75l-29.167,-0c-24.146,-0 -43.75,-19.604 -43.75,-43.75c0,-24.146 19.604,-43.75 43.75,-43.75l29.167,-0c24.146,-0 43.75,19.604 43.75,43.75Z"/><path d="M2126.33,2324.49c0,24.146 -19.604,43.75 -43.75,43.75l-29.167,-0c-24.146,-0 -43.75,-19.604 -43.75,-43.75c0,-24.146 19.604,-43.75 43.75,-43.75l29.167,-0c24.146,-0 43.75,19.604 43.75,43.75Z"/><path d="M2280.69,2322.36c-0,24.147 -19.604,43.75 -43.75,43.75l-29.167,0c-24.146,0 -43.75,-19.603 -43.75,-43.75c-0,-24.146 19.604,-43.75 43.75,-43.75l29.167,0c24.146,0 43.75,19.604 43.75,43.75Z"/><path d="M2280.69,2322.36c-0,24.147 -19.604,43.75 -43.75,43.75l-29.167,0c-24.146,0 -43.75,-19.603 -43.75,-43.75c-0,-24.146 19.604,-43.75 43.75,-43.75l29.167,0c24.146,0 43.75,19.604 43.75,43.75Z"/></g><g><path d="M251.426,2324.49c0,24.146 -19.604,43.75 -43.75,43.75l-29.166,-0c-24.147,-0 -43.75,-19.604 -43.75,-43.75c-0,-24.146 19.603,-43.75 43.75,-43.75l29.166,-0c24.146,-0 43.75,19.604 43.75,43.75Z"/><path d="M251.426,2324.49c0,24.146 -19.604,43.75 -43.75,43.75l-29.166,-0c-24.147,-0 -43.75,-19.604 -43.75,-43.75c-0,-24.146 19.603,-43.75 43.75,-43.75l29.166,-0c24.146,-0 43.75,19.604 43.75,43.75Z"/><path d="M405.78,2322.36c-0,24.147 -19.604,43.75 -43.75,43.75l-29.167,0c-24.146,0 -43.75,-19.603 -43.75,-43.75c0,-24.146 19.604,-43.75 43.75,-43.75l29.167,0c24.146,0 43.75,19.604 43.75,43.75Z"/><path d="M405.78,2322.36c-0,24.147 -19.604,43.75 -43.75,43.75l-29.167,0c-24.146,0 -43.75,-19.603 -43.75,-43.75c0,-24.146 19.604,-43.75 43.75,-43.75l29.167,0c24.146,0 43.75,19.604 43.75,43.75Z"/></g></g><g id="Cart"><path d="M199.327,384.091c0,-0 123.912,59.867 140.042,111.998c63.54,205.354 76.503,1158.5 330.197,1158.27c261.782,-0.239 907.116,-6.887 1095.73,-10.216c232.349,-4.102 397.979,-943.999 129.011,-956.492c-4.887,-0.227 -104.513,-1.14 -104.513,-1.14" style="fill:none;stroke:#000;stroke-width:87.5px;"/><path d="M399.838,927.723l231.776,-0" style="fill:none;stroke:#000;stroke-width:87.5px;stroke-linecap:butt;"/><path d="M1792.1,927.723l231.777,-0" style="fill:none;stroke:#000;stroke-width:87.5px;stroke-linecap:butt;"/><path d="M390.378,677.444l231.776,0" style="fill:none;stroke:#000;stroke-width:87.5px;stroke-linecap:butt;"/><path d="M430.993,1186.37l228.87,0" style="fill:none;stroke:#000;stroke-width:87.5px;stroke-linecap:butt;"/><path d="M1789.31,1186.37l228.87,0" style="fill:none;stroke:#000;stroke-width:87.5px;stroke-linecap:butt;"/><path d="M499.227,1445.02l1425.39,0" style="fill:none;stroke:#000;stroke-width:87.5px;stroke-linecap:butt;"/><circle cx="109.096" cy="344.12" r="79.93" style="fill:#fff;stroke:#000;stroke-width:58.33px;"/></g><g><g><path d="M1498.11,56.25c86.344,88.973 205.524,208.074 284.893,284.893l-0,803.808c-0,157.236 -127.656,284.893 -284.893,284.893l-569.786,-0c-157.236,-0 -284.893,-127.657 -284.893,-284.893l0,-803.808c0,-157.237 127.657,-284.893 284.893,-284.893l569.786,-0Z" style="fill:#fff;stroke:#000;stroke-width:112.5px;"/><path d="M1459.29,56.25c0,-0 2.229,172.957 1.455,275.803c89.786,-1.269 271.895,3.114 271.895,3.114" style="fill:#fff;stroke:#000;stroke-width:66.67px;stroke-linecap:butt;"/></g><g><g><path d="M1598.3,1153.3c0,24.147 -19.604,43.75 -43.75,43.75l-478.818,0c-24.146,0 -43.75,-19.603 -43.75,-43.75c0,-24.146 19.604,-43.75 43.75,-43.75l478.818,0c24.146,0 43.75,19.604 43.75,43.75Z"/><path d="M1598.3,1153.3c0,24.147 -19.604,43.75 -43.75,43.75l-478.818,0c-24.146,0 -43.75,-19.603 -43.75,-43.75c0,-24.146 19.604,-43.75 43.75,-43.75l478.818,0c24.146,0 43.75,19.604 43.75,43.75Z"/><path d="M1598.3,948.92c0,24.146 -19.604,43.75 -43.75,43.75l-478.818,0c-24.146,0 -43.75,-19.604 -43.75,-43.75c0,-24.146 19.604,-43.75 43.75,-43.75l478.818,0c24.146,0 43.75,19.604 43.75,43.75Z"/><path d="M1598.3,948.92c0,24.146 -19.604,43.75 -43.75,43.75l-478.818,0c-24.146,0 -43.75,-19.604 -43.75,-43.75c0,-24.146 19.604,-43.75 43.75,-43.75l478.818,0c24.146,0 43.75,19.604 43.75,43.75Z"/><path d="M1598.3,744.539c0,24.146 -19.604,43.75 -43.75,43.75l-478.818,-0c-24.146,-0 -43.75,-19.604 -43.75,-43.75c0,-24.147 19.604,-43.75 43.75,-43.75l478.818,-0c24.146,-0 43.75,19.603 43.75,43.75Z"/><path d="M1598.3,744.539c0,24.146 -19.604,43.75 -43.75,43.75l-478.818,-0c-24.146,-0 -43.75,-19.604 -43.75,-43.75c0,-24.147 19.604,-43.75 43.75,-43.75l478.818,-0c24.146,-0 43.75,19.603 43.75,43.75Z"/><path d="M1598.3,540.157c0,24.147 -19.604,43.75 -43.75,43.75l-478.818,0c-24.146,0 -43.75,-19.603 -43.75,-43.75c0,-24.146 19.604,-43.75 43.75,-43.75l478.818,0c24.146,0 43.75,19.604 43.75,43.75Z"/><path d="M1598.3,540.157c0,24.147 -19.604,43.75 -43.75,43.75l-478.818,0c-24.146,0 -43.75,-19.603 -43.75,-43.75c0,-24.146 19.604,-43.75 43.75,-43.75l478.818,0c24.146,0 43.75,19.604 43.75,43.75Z"/><path d="M1316.64,335.776c-0,24.146 -19.604,43.75 -43.75,43.75l-197.161,0c-24.146,0 -43.75,-19.604 -43.75,-43.75c0,-24.146 19.604,-43.75 43.75,-43.75l197.161,0c24.146,0 43.75,19.604 43.75,43.75Z"/><path d="M1316.64,335.776c-0,24.146 -19.604,43.75 -43.75,43.75l-197.161,0c-24.146,0 -43.75,-19.604 -43.75,-43.75c0,-24.146 19.604,-43.75 43.75,-43.75l197.161,0c24.146,0 43.75,19.604 43.75,43.75Z"/></g><path d="M940.527,950.331c0,24.147 -19.604,43.75 -43.75,43.75l-49.878,0c-24.146,0 -43.75,-19.603 -43.75,-43.75c-0,-24.146 19.604,-43.75 43.75,-43.75l49.878,0c24.146,0 43.75,19.604 43.75,43.75Z"/><path d="M940.527,950.331c0,24.147 -19.604,43.75 -43.75,43.75l-49.878,0c-24.146,0 -43.75,-19.603 -43.75,-43.75c-0,-24.146 19.604,-43.75 43.75,-43.75l49.878,0c24.146,0 43.75,19.604 43.75,43.75Z"/><path d="M951.396,1053.83l-84.653,118.519l-51.611,-62.48" style="fill:none;stroke:#000;stroke-width:50px;"/><path d="M951.396,642.269l-84.653,118.52l-51.611,-62.481" style="fill:none;stroke:#000;stroke-width:50px;"/><path d="M951.396,432.873l-84.653,118.52l-51.611,-62.481" style="fill:none;stroke:#000;stroke-width:50px;"/><path d="M951.396,225.421l-84.653,118.519l-51.611,-62.48" style="fill:none;stroke:#000;stroke-width:50px;"/><path d="M940.527,950.331c0,24.147 -19.604,43.75 -43.75,43.75l-49.878,0c-24.146,0 -43.75,-19.603 -43.75,-43.75c-0,-24.146 19.604,-43.75 43.75,-43.75l49.878,0c24.146,0 43.75,19.604 43.75,43.75Z"/><path d="M940.527,950.331c0,24.147 -19.604,43.75 -43.75,43.75l-49.878,0c-24.146,0 -43.75,-19.603 -43.75,-43.75c-0,-24.146 19.604,-43.75 43.75,-43.75l49.878,0c24.146,0 43.75,19.604 43.75,43.75Z"/></g></g></g></g></svg>
